<svg width="70" height="15" viewBox="0 0 70 15" fill="none" xmlns="http://www.w3.org/2000/svg">
<path d="M0.140869 0.906006H3.1255V14.4119H0.140869V0.906006Z" fill="#05342D"/>
<path d="M5.10605 0.906006H7.80722V14.4119H5.10605V0.906006Z" fill="#05342D"/>
<path d="M9.6816 0.906006H12.3828V14.4119H9.6816V0.906006Z" fill="#05342D"/>
<path d="M17.3085 14.5786C16.2525 14.5786 15.4243 14.3118 14.8241 13.7783C14.2349 13.2447 13.9403 12.461 13.9403 11.4272V7.75898C13.9403 6.7252 14.2349 5.94153 14.8241 5.40796C15.4243 4.8744 16.2525 4.60761 17.3085 4.60761C18.3645 4.60761 19.1926 4.87995 19.7929 5.42463C20.3932 5.9582 20.6933 6.73632 20.6933 7.75898V11.4272C20.6933 12.4499 20.3932 13.2336 19.7929 13.7783C19.1926 14.3118 18.3645 14.5786 17.3085 14.5786ZM17.3252 12.7778C17.5808 12.7778 17.7587 12.6833 17.8587 12.4944C17.9588 12.2943 18.0088 11.9997 18.0088 11.6107V7.57557C18.0088 7.18651 17.9588 6.8975 17.8587 6.70853C17.7587 6.50844 17.5808 6.40839 17.3252 6.40839C17.0695 6.40839 16.8861 6.50844 16.7749 6.70853C16.6749 6.90861 16.6248 7.19763 16.6248 7.57557V11.6107C16.6248 11.9997 16.6749 12.2943 16.7749 12.4944C16.8861 12.6833 17.0695 12.7778 17.3252 12.7778Z" fill="#05342D"/>
<path d="M25.3686 14.5786C24.3126 14.5786 23.4845 14.3118 22.8842 13.7783C22.2951 13.2447 22.0005 12.461 22.0005 11.4272V7.75898C22.0005 6.7252 22.2951 5.94153 22.8842 5.40796C23.4845 4.8744 24.3126 4.60761 25.3686 4.60761C26.4246 4.60761 27.2528 4.87995 27.853 5.42463C28.4533 5.9582 28.7534 6.73632 28.7534 7.75898V11.4272C28.7534 12.4499 28.4533 13.2336 27.853 13.7783C27.2528 14.3118 26.4246 14.5786 25.3686 14.5786ZM25.3853 12.7778C25.641 12.7778 25.8188 12.6833 25.9189 12.4944C26.0189 12.2943 26.0689 11.9997 26.0689 11.6107V7.57557C26.0689 7.18651 26.0189 6.8975 25.9189 6.70853C25.8188 6.50844 25.641 6.40839 25.3853 6.40839C25.1296 6.40839 24.9462 6.50844 24.8351 6.70853C24.735 6.90861 24.685 7.19763 24.685 7.57557V11.6107C24.685 11.9997 24.735 12.2943 24.8351 12.4944C24.9462 12.6833 25.1296 12.7778 25.3853 12.7778Z" fill="#05342D"/>
<path d="M30.2607 4.77435H32.9285V5.54135C33.5733 4.90774 34.3347 4.59094 35.2129 4.59094C35.6019 4.59094 35.9354 4.69098 36.2133 4.89107C36.5023 5.08004 36.7191 5.3635 36.8636 5.74144C37.5416 4.97444 38.3587 4.59094 39.3146 4.59094C39.8816 4.59094 40.3318 4.80214 40.6652 5.22455C41.0098 5.63584 41.1821 6.20275 41.1821 6.92529V14.4119H38.5143V7.20874C38.5143 6.94196 38.4643 6.75299 38.3642 6.64183C38.2753 6.51955 38.1364 6.45842 37.9474 6.45842C37.8251 6.45842 37.6806 6.49176 37.5139 6.55846C37.3471 6.61404 37.1915 6.69741 37.047 6.80857V14.4119H34.4125V7.20874C34.4125 6.70853 34.218 6.45842 33.8289 6.45842C33.5733 6.45842 33.2731 6.57513 32.9285 6.80857V14.4119H30.2607V4.77435Z" fill="#05342D"/>
<path d="M42.815 1.25616H45.5495V3.14031H42.815V1.25616ZM42.8317 4.77435H45.5495V14.4119H42.8317V4.77435Z" fill="#05342D"/>
<path d="M47.2277 4.77435H49.9456V5.74144C50.7014 4.98556 51.474 4.60761 52.2632 4.60761C52.8413 4.60761 53.2803 4.81882 53.5805 5.24122C53.8917 5.65251 54.0473 6.19163 54.0473 6.85859V14.4119H51.3462V7.24209C51.3462 6.99754 51.3017 6.81968 51.2128 6.70853C51.135 6.58625 50.996 6.52511 50.7959 6.52511C50.5736 6.52511 50.2902 6.64183 49.9456 6.87526V14.4119H47.2277V4.77435Z" fill="#05342D"/>
<path d="M57.3794 14.5786C56.8014 14.5786 56.3567 14.373 56.0455 13.9617C55.7342 13.5393 55.5786 12.9946 55.5786 12.3276V4.77435H58.2965V12.0108C58.2965 12.2554 58.3409 12.4388 58.4298 12.5611C58.5188 12.6833 58.6633 12.7445 58.8634 12.7445C59.0412 12.7445 59.308 12.6444 59.6637 12.4443V4.77435H62.3649V14.4119H59.6637V13.5282C58.9078 14.2285 58.1464 14.5786 57.3794 14.5786Z" fill="#05342D"/>
<path d="M67.0487 14.5786C66.1928 14.5786 65.4813 14.3896 64.9144 14.0117C64.3586 13.6226 63.9084 13.0057 63.5638 12.1609L65.4146 11.3439C65.5925 11.7885 65.7981 12.1331 66.0316 12.3777C66.2761 12.6222 66.5429 12.7445 66.8319 12.7445C67.2543 12.7445 67.4655 12.5777 67.4655 12.2443C67.4655 11.9997 67.3822 11.7829 67.2154 11.594C67.0487 11.3939 66.6874 11.066 66.1316 10.6102L65.4313 10.0266C64.8533 9.53753 64.4309 9.09289 64.1641 8.69272C63.9084 8.29255 63.7806 7.81456 63.7806 7.25876C63.7806 6.74743 63.914 6.29168 64.1808 5.8915C64.4587 5.49133 64.8255 5.18008 65.2813 4.95777C65.737 4.72433 66.2261 4.60761 66.7486 4.60761C67.5378 4.60761 68.1936 4.82437 68.7161 5.2579C69.2496 5.6803 69.6276 6.29168 69.8499 7.09203L68.0991 7.89237C67.988 7.53666 67.8157 7.21986 67.5823 6.94196C67.3488 6.65295 67.0932 6.50844 66.8153 6.50844C66.6374 6.50844 66.4929 6.55846 66.3817 6.6585C66.2817 6.75855 66.2317 6.89194 66.2317 7.05868C66.2317 7.25876 66.3373 7.47552 66.5485 7.70896C66.7708 7.94239 67.1154 8.24808 67.5823 8.62602L68.2659 9.22628C68.8217 9.69315 69.2496 10.1322 69.5498 10.5435C69.8499 10.9437 70 11.4161 70 11.9608C70 12.5055 69.861 12.9779 69.5831 13.3781C69.3163 13.7671 68.9551 14.0673 68.4993 14.2785C68.0547 14.4786 67.5711 14.5786 67.0487 14.5786Z" fill="#05342D"/>
</svg>
