<svg width="23" height="23" viewBox="0 0 23 23" fill="none" xmlns="http://www.w3.org/2000/svg">
<path d="M18.0797 10.3491C18.3969 11.248 18.5556 12.2174 18.5556 13.2221C18.5556 18.0693 14.6249 21.9999 9.77778 21.9999C4.93061 21.9999 1 18.0693 1 13.2221C1 8.37495 4.93061 4.44434 9.77778 4.44434C10.8177 4.44434 11.8048 4.6206 12.7213 4.95549" stroke="#8D9DA8" stroke-width="1.5" stroke-miterlimit="10" stroke-linecap="round"/>
<path d="M14.1884 12.6139C14.2223 12.8167 14.2223 13.0195 14.2223 13.2223C14.2223 15.6726 12.2244 17.6667 9.76935 17.6667C7.31433 17.6667 5.33337 15.6726 5.33337 13.2223C5.33337 10.7719 7.33126 8.77783 9.78628 8.77783C10.1757 8.77783 10.5482 8.82853 10.9037 8.91302" stroke="#8D9DA8" stroke-width="1.5" stroke-miterlimit="10" stroke-linecap="round"/>
<path d="M15.9434 6.9794L16.1467 3.5376L18.5577 1L18.9063 3.96053L22 4.38347L19.4437 6.99398L15.9434 6.9794Z" stroke="#8D9DA8" stroke-width="1.5" stroke-miterlimit="10" stroke-linecap="round" stroke-linejoin="round"/>
<path d="M10.9615 11.9962L15.987 6.93555" stroke="#8D9DA8" stroke-width="1.5" stroke-miterlimit="10" stroke-linecap="round"/>
</svg>
