<svg width="24" height="24" viewBox="0 0 24 24" fill="none" xmlns="http://www.w3.org/2000/svg">
<path d="M4 6.4C4 5.07452 5.07452 4 6.4 4H8C9.32548 4 10.4 5.07452 10.4 6.4V8C10.4 9.32548 9.32548 10.4 8 10.4H6.4C5.07452 10.4 4 9.32548 4 8V6.4Z" stroke="#0049C6" stroke-width="1.6"/>
<path d="M4 16C4 14.6745 5.07452 13.6 6.4 13.6H8C9.32548 13.6 10.4 14.6745 10.4 16V17.6C10.4 18.9255 9.32548 20 8 20H6.4C5.07452 20 4 18.9255 4 17.6V16Z" stroke="#0049C6" stroke-width="1.6"/>
<path d="M13.6 6.4C13.6 5.07452 14.6745 4 16 4H17.6C18.9255 4 20 5.07452 20 6.4V8C20 9.32548 18.9255 10.4 17.6 10.4H16C14.6745 10.4 13.6 9.32548 13.6 8V6.4Z" stroke="#0049C6" stroke-width="1.6"/>
<path d="M13.6 16C13.6 14.6745 14.6745 13.6 16 13.6H17.6C18.9255 13.6 20 14.6745 20 16V17.6C20 18.9255 18.9255 20 17.6 20H16C14.6745 20 13.6 18.9255 13.6 17.6V16Z" stroke="#0049C6" stroke-width="1.6"/>
</svg>
