<svg width="24" height="24" viewBox="0 0 24 24" fill="none" xmlns="http://www.w3.org/2000/svg">
<path d="M8.92308 11.0908C10.8652 11.0908 12.4396 9.46276 12.4396 7.45446C12.4396 5.44616 10.8652 3.81812 8.92308 3.81812C6.98099 3.81812 5.40662 5.44616 5.40662 7.45446C5.40662 9.46276 6.98099 11.0908 8.92308 11.0908Z" stroke="#8D9DA8" stroke-width="1.5" stroke-linecap="round" stroke-linejoin="round"/>
<path d="M14.198 11.0908C16.1401 11.0908 17.7145 9.46276 17.7145 7.45446C17.7145 5.44617 16.1401 3.81812 14.198 3.81812" stroke="#8D9DA8" stroke-width="1.5" stroke-linecap="round" stroke-linejoin="round"/>
<path d="M11.6581 14.7271H6.18807C5.87061 14.7271 5.71187 14.7271 5.57805 14.7395C4.09051 14.8779 2.91113 16.1324 2.78099 17.7146C2.76929 17.8569 2.76929 18.0257 2.76929 18.3634C2.76929 18.5322 2.76929 18.6167 2.77514 18.6878C2.84021 19.4789 3.4299 20.1061 4.17367 20.1753C4.24058 20.1815 4.31995 20.1815 4.47868 20.1815H13.3675C13.5263 20.1815 13.6056 20.1815 13.6725 20.1753C14.4163 20.1061 15.006 19.4789 15.0711 18.6878C15.0769 18.6167 15.0769 18.5322 15.0769 18.3634C15.0769 18.0257 15.0769 17.8569 15.0652 17.7146C14.9351 16.1324 13.7557 14.8779 12.2681 14.7395C12.1344 14.7271 11.9756 14.7271 11.6581 14.7271Z" stroke="#8D9DA8" stroke-width="1.5" stroke-linecap="round" stroke-linejoin="round"/>
<path d="M17.3846 14.4521H17.641C18.1174 14.4521 18.3556 14.4521 18.5555 14.4801C19.9362 14.6735 21.0227 15.8291 21.2045 17.2977C21.2308 17.5103 21.2308 17.7637 21.2308 18.2703C21.2308 18.5237 21.2308 18.6503 21.2176 18.7566C21.1267 19.4909 20.5835 20.0687 19.8932 20.1654C19.7932 20.1794 19.6741 20.1794 19.436 20.1794H17.3846" stroke="#8D9DA8" stroke-width="1.5" stroke-linecap="round" stroke-linejoin="round"/>
</svg>
